# xmcd
#
# Track frame offsets:
#	150
#	15498
#	41416
#	54215
#	72623
#	89280
#	111348
#	125205
#	139967
#	163594
#
# Disc length: 2329 seconds
#
# Revision: 1
# Processed by: cddbd v1.5PL3 Copyright (c) Steve Scherf et al.
# Submitted via: EasyCDDAExtractor 5.0.7
#
DISCID=8b09170a
DTITLE=Marty Hall - Cool Blues
DYEAR=2002
DGENRE=Blues
TTITLE0=V.I.P.
TTITLE1=Seduced by the Blues
TTITLE2=Love Me or Leave Me
TTITLE3=Gonna Make it Up
TTITLE4=King of the Road
TTITLE5=I Cry for You
TTITLE6=Signifying Monkey
TTITLE7=No More Doggin'
TTITLE8=Got You on my Mind
TTITLE9=Lost Mind
EXTD=
EXTT0=
EXTT1=
EXTT2=
EXTT3=
EXTT4=
EXTT5=
EXTT6=
EXTT7=
EXTT8=
EXTT9=
PLAYORDER=
